<svg width="150" height="246" viewBox="0 0 150 246" fill="none" xmlns="http://www.w3.org/2000/svg">
<path d="M58.8591 37.9161C59.0865 39.5987 57.51 46.7574 56.8582 48.8834C56.266 50.8089 55.267 52.5846 53.9287 54.0904C52.6137 55.6252 51.7421 56.9592 50.3172 58.3879C48.8071 59.9087 47.8572 61.8966 47.6227 64.0269C47.5166 65.0577 47.8236 66.1794 47.2438 67.0359C46.9103 67.5361 46.5995 68.2941 45.2428 68.2941C42.9463 68.2941 38.1561 68.7375 35.6322 68.7109C32.3542 68.8095 26.537 67.8924 24.9984 67.8848C23.8312 67.8848 23.4371 66.1605 23.168 65.016C22.8989 63.8715 22.8156 62.6778 22.2926 61.6318C21.7696 60.5859 20.8449 59.7711 20.0188 58.9374C15.8009 54.7688 13.0951 49.2927 11.3025 43.6347C10.6659 41.6186 11.0979 33.4443 12.9548 30.1435C14.2557 27.782 15.7421 25.5276 17.4001 23.4017C19.1737 21.1506 21.6408 19.6499 24.1609 18.2742C26.6204 16.9289 31.1983 15.8716 33.9913 15.5608C38.8042 15.0227 43.1282 15.4168 48.6801 19.4111C52.14 21.9199 54.9861 24.6523 56.6687 29.5788C57.6569 32.2836 58.3902 35.0749 58.8591 37.9161Z" fill="#A165E6"/>
<path d="M57.4001 31.7655C57.1803 31.053 56.9415 30.3178 56.6838 29.5712C54.9861 24.6447 52.1362 21.9199 48.6687 19.4187C43.1168 15.4244 38.7928 15.0303 33.9799 15.5684C31.1869 15.8792 26.609 16.9365 24.1495 18.2818C21.6294 19.6575 19.1623 21.1582 17.3887 23.4092C15.7307 25.5352 14.2443 27.7896 12.9435 30.1511C11.0865 33.4519 10.6697 41.6262 11.2912 43.6423C13.0837 49.3003 15.7857 54.7763 20.0074 58.945C20.8487 59.7787 21.7658 60.5783 22.2812 61.6394C22.7966 62.7005 22.8951 63.8905 23.1566 65.0236C23.4181 66.1567 23.8198 67.8848 24.987 67.8924C25.4683 67.8924 26.3703 67.9871 27.4768 68.1084C27.6133 65.4367 27.401 62.0449 25.6161 59.9985C15.763 48.6901 13.7582 33.4708 22.6488 26.1946C32.1988 18.3917 47.0467 18.3311 57.4001 31.7655Z" fill="#c7a9e9"/>
<path d="M37.2921 14.3444C31.5735 14.2838 25.6199 15.8603 20.8449 19.0208C12.5721 24.4893 7.52043 36.4533 10.9918 46.0298C12.2492 49.6194 14.01 53.0122 16.2215 56.1066C17.2715 57.4605 18.3963 58.7548 19.5905 59.9834C21.3641 61.9123 21.6256 63.6973 22.3494 66.0279C22.5305 66.7418 22.8756 67.4036 23.3575 67.9606C22.5086 68.7716 22.0614 69.9578 22.8004 71.1212C22.8145 71.1386 22.8297 71.155 22.8458 71.1705C21.2807 73.179 21.9894 74.3917 23.6985 75.1231C21.1329 78.837 26.3513 79.6935 31.456 79.7465C31.4987 80.5411 31.6716 81.3233 31.9676 82.062C32.4375 83.0246 33.7449 83.1042 34.6848 83.089C35.78 83.089 37.3375 82.9753 38.2774 82.3955C39.2172 81.8157 39.384 80.4665 39.4484 79.3941C41.87 79.288 46.1826 79.6328 47.9941 77.7266C48.8847 76.7868 48.6232 75.7295 47.8993 74.945C49.2712 74.2098 49.7601 73.0767 48.4564 71.3297C49.0552 70.4353 48.8164 69.2832 47.6985 68.1842C47.9027 67.9552 48.076 67.7004 48.2139 67.4263C48.8922 66.0734 48.5171 64.7015 48.8127 63.2577C49.3167 60.8133 51.0448 59.2482 52.5758 57.4329C54.4706 55.1591 56.4678 52.9081 57.5403 50.1265C61.1859 40.6523 60.3939 28.9877 52.8714 21.5372C48.7103 17.4292 43.2267 14.4202 37.2921 14.3444ZM25.9913 68.9914C29.1822 69.3704 32.411 69.7759 35.6284 69.7494C38.4707 69.7494 41.3129 69.5296 44.1627 69.3704C44.8907 69.3545 45.6143 69.254 46.3191 69.071C48.4602 71.0682 42.4839 71.5722 41.0135 71.6139C39.2172 71.6631 37.4209 71.6139 35.6246 71.557C33.6767 71.4926 31.725 71.432 29.7809 71.3031C28.8676 71.2387 21.8226 70.1435 24.7862 68.783C25.182 68.8828 25.5849 68.9525 25.9913 68.9914ZM31.4825 56.0118C31.2892 52.3775 31.3726 48.5727 30.5616 45.0218C32.0906 44.5316 33.5434 43.8301 34.878 42.9375C36.179 44.0475 37.7005 44.869 39.3423 45.3477C37.3262 52.3548 37.7165 60.6996 38.1372 67.7257C37.2618 67.7257 36.4091 67.6878 35.6284 67.6916C34.446 67.6916 33.2712 67.6385 32.1002 67.5476C31.8931 63.7099 31.6872 59.8659 31.4825 56.0156V56.0118ZM33.942 39.3373C33.1841 38.0488 32.536 35.8394 33.9875 34.6646C35.7194 33.2548 36.7426 34.9337 37.0192 36.5594C37.3034 38.2383 36.5038 39.7466 35.1698 40.9555C34.6971 40.4687 34.2813 39.9296 33.9306 39.3486L33.942 39.3373ZM42.0443 74.6267C39.8653 74.7214 37.6862 74.6494 35.5109 74.6267C33.6578 74.6267 31.8122 74.5926 29.9628 74.5016C28.6668 74.4334 22.4252 74.6077 24.0661 72.1596C26.6014 73.3988 31.437 72.9365 33.419 73.0161C37.5498 73.1714 42.0784 73.6376 46.1447 72.6788C46.5167 72.5895 46.8786 72.4626 47.2248 72.2998C48.4337 74.3728 42.9652 74.5963 42.0443 74.638V74.6267ZM37.0419 81.2055C36.278 81.4364 35.4827 81.5464 34.6848 81.5314C34.0633 81.5314 33.582 81.5959 33.3129 81.107C33.138 80.6719 33.0356 80.211 33.0097 79.7427C34.9046 79.7086 36.6819 79.5911 37.8795 79.504C37.8188 80.2088 37.6635 80.9781 37.0419 81.2169V81.2055ZM42.5711 77.6395C40.8013 77.7759 39.0202 77.863 37.2655 77.954C35.5564 78.0449 33.8548 78.1321 32.1343 78.1624C31.5621 78.1624 23.3537 78.242 25.1386 75.7863C25.1793 75.7316 25.2124 75.6717 25.2371 75.6082C28.7464 76.4268 34.0367 76.1691 35.5261 76.1842C36.7312 76.1842 42.537 76.5101 46.1978 75.5741C48.5095 76.8626 43.2532 77.5978 42.5711 77.6508V77.6395ZM56.392 46.5869C55.653 49.6186 54.3873 51.828 52.4507 54.2496C50.8439 56.2619 48.7293 58.1113 47.5962 60.4495C46.3304 63.0568 47.1073 66.4069 43.7724 67.2709C42.4373 67.5732 41.071 67.7156 39.7023 67.6954C39.4503 63.5798 39.4503 59.4528 39.7023 55.3372C39.9032 52.279 40.0282 48.7622 40.8581 45.6092C41.2462 45.6625 41.6375 45.6878 42.0292 45.685C45.1784 45.6509 50.5787 43.2482 48.8923 39.0379C48.3541 37.6888 46.6488 37.4159 45.3565 37.5826C42.734 37.9275 41.1272 40.478 40.2291 42.7252C40.0851 43.0739 39.96 43.4339 39.8501 43.7939C39.4494 43.689 39.0578 43.5522 38.6791 43.3846C37.798 42.9862 36.9715 42.4768 36.2196 41.8688C39.1035 39.3032 40.2973 35.1989 36.5379 32.5689C33.7942 30.6513 31.2324 35.0928 31.6114 37.4955C31.9245 39.1578 32.7145 40.6932 33.8852 41.9142C32.7431 42.6298 31.4983 43.1665 30.194 43.5059C29.1936 40.2771 27.0372 36.3624 23.1263 37.7721C20.7236 38.64 20.8032 41.721 22.2281 43.4566C23.888 45.5031 26.4688 45.8517 29.0495 45.3515C29.7089 48.3832 29.7203 51.5627 29.8833 54.6589C30.1106 58.8882 30.3368 63.1174 30.5616 67.3467C30.1182 67.305 29.671 67.2595 29.2277 67.2103C28.3409 67.1155 27.2267 67.1459 26.3589 66.9033C24.5474 66.3993 24.3845 65.2965 23.9714 63.5532C22.8572 58.8086 18.3248 55.9436 15.9411 51.7636C13.5574 47.5836 11.8558 43.4263 12.1514 38.5983C12.4849 33.2245 14.3532 29.0862 17.6085 24.8115C24.4868 15.7769 39.096 13.8214 48.1684 20.2639C53.1556 23.8148 55.5734 28.442 57.0969 34.3046C58.1845 38.6475 57.4266 42.3576 56.392 46.5983V46.5869ZM41.3319 44.0744C41.5291 43.5265 41.7594 42.9912 42.0216 42.4713C42.9766 40.603 43.3972 40.0914 45.5536 39.9701C47.2172 39.8754 48.1305 39.8602 47.2134 41.5466C46.0841 43.6385 43.617 44.2942 41.3319 44.0857V44.0744ZM28.6251 43.8394C27.5055 44.0233 26.3592 43.9586 25.2675 43.6499C24.032 43.2444 22.213 41.7968 22.8193 40.2392C24.2025 36.658 27.7914 41.486 28.2802 42.7897C28.3977 43.1345 28.5038 43.487 28.6251 43.8394Z" fill="#333333"/>
<path d="M68.7957 20.0061C66.1884 21.1847 63.5166 22.2799 61.1822 23.9588C60.375 24.5386 61.1519 25.8915 61.9667 25.3041C64.3049 23.6253 66.9728 22.5301 69.5801 21.3515C70.4821 20.9384 69.69 19.5931 68.7957 20.0061Z" fill="#333333"/>
<path d="M50.7379 13.6812C52.5039 11.4074 53.853 8.9441 55.2514 6.44671C55.7403 5.57129 54.3949 4.78304 53.906 5.66224C52.5759 8.03079 51.3139 10.4296 49.6351 12.5784C49.025 13.3591 50.1202 14.4694 50.7379 13.6812Z" fill="#333333"/>
<path d="M35.3139 8.91757C35.5034 6.19658 35.5905 3.4756 35.5754 0.754619C35.5754 -0.249644 34.0102 -0.253433 34.0178 0.754619C34.0178 3.47813 33.9307 6.19911 33.7563 8.91757C33.6881 9.91804 35.2457 9.91425 35.3139 8.91757Z" fill="#333333"/>
<path d="M19.1055 13.738C19.6588 14.568 21.0003 13.7873 20.4508 12.9536C18.7947 10.4789 16.9416 8.027 15.8805 5.2378C15.528 4.30933 14.0197 4.71104 14.3646 5.65467C15.4901 8.59924 17.3622 11.1383 19.1055 13.738Z" fill="#333333"/>
<path d="M8.53994 23.7314C6.19303 22.0127 3.63728 20.5992 0.934067 19.5249C0.00180868 19.1459 -0.399895 20.6618 0.520995 21.0407C3.09301 22.078 5.52272 23.438 7.75168 25.0881C8.53994 25.6717 9.32819 24.3226 8.53994 23.7314Z" fill="#333333"/>
<path d="M104.316 153.838C104.392 151.379 103.418 148.514 102.975 146.104C102.388 142.923 101.786 139.745 101.167 136.569C100.886 135.117 100.007 132.995 100.166 131.506C100.299 130.263 102.103 129.137 102.217 128.228C102.277 127.746 101.485 126.189 101.269 125.848C100.651 124.874 101.425 125.385 100.231 125.09C99.3668 124.866 98.336 125.268 97.472 125.128C97.4492 125.128 97.0058 125.105 96.714 125.128C95.9561 125.806 95.0693 127.439 94.6866 128.538C96.2517 130.657 97.4454 130.706 96.7519 133.465C95.7135 137.615 94.4213 141.696 93.3791 145.846C92.8675 147.892 92.3749 149.95 92.0073 152.027C91.5639 154.532 91.7458 154.555 93.6444 156.01C95.1072 157.147 96.7822 158.265 98.0631 159.591C98.1427 159.674 98.1958 159.739 98.2413 159.796C98.2533 159.777 98.2687 159.76 98.2867 159.746C98.7769 159.381 99.2381 158.978 99.6662 158.541C100.97 157.378 102.224 156.158 103.516 154.983C103.807 154.759 104.083 154.517 104.343 154.259C104.303 154.122 104.294 153.979 104.316 153.838Z" fill="#A165E6"/>
<path d="M105.518 151.523C104.597 146.016 103.528 140.533 102.459 135.057C102.289 134.189 101.929 133.192 101.914 132.313C101.891 131.051 101.789 131.506 102.789 130.172C104.203 128.277 103.824 126.272 102.296 124.324C101.254 122.994 97.8889 123.078 96.3807 123.566C94.8724 124.055 93.5649 126.757 93.0988 128.311C93.0277 128.422 92.9924 128.552 92.9978 128.683C93.0033 128.815 93.0491 128.942 93.1291 129.046C93.1422 129.068 93.1574 129.088 93.1746 129.107C94.141 130.46 95.4484 131.108 95.3915 132.427C95.2779 134.465 94.194 136.804 93.6483 138.759C92.1627 144.065 90.5863 149.457 90.0102 154.96C90.007 155.096 90.0405 155.231 90.1071 155.349C90.1738 155.468 90.2713 155.567 90.3892 155.635C91.9185 156.62 93.3784 157.709 94.7587 158.894C95.5394 159.534 96.6535 160.921 97.654 161.232C98.9842 161.656 99.7497 160.531 100.746 159.636C102.084 158.443 105.104 156.548 105.809 154.858C106.196 153.948 105.669 152.432 105.518 151.523ZM103.501 154.987C102.209 156.161 100.955 157.382 99.6511 158.545C99.2231 158.982 98.7619 159.385 98.2717 159.75C98.2537 159.764 98.2383 159.78 98.2262 159.799C98.1807 159.743 98.1277 159.678 98.0481 159.595C96.7672 158.268 95.0922 157.135 93.6294 156.014C91.7345 154.558 91.5488 154.536 91.9922 152.031C92.3712 149.954 92.8525 147.896 93.3641 145.85C94.4062 141.7 95.6985 137.618 96.7369 133.469C97.4304 130.706 96.2366 130.657 94.6715 128.542C95.0505 127.436 95.9259 125.802 96.699 125.132C96.9908 125.132 97.4342 125.132 97.4569 125.132C98.3361 125.272 99.3518 124.87 100.216 125.094C101.41 125.401 100.636 124.889 101.254 125.852C101.47 126.193 102.262 127.746 102.202 128.231C102.088 129.141 100.284 130.267 100.151 131.51C99.9922 132.999 100.871 135.121 101.152 136.573C101.768 139.748 102.371 142.927 102.96 146.107C103.403 148.518 104.377 151.383 104.301 153.842C104.28 153.98 104.289 154.121 104.328 154.255C104.068 154.516 103.792 154.76 103.501 154.987Z" fill="#333333"/>
<path d="M145.067 141.753C137.146 133.037 127.77 125.139 118.433 117.924C127.028 112.967 133.019 103.352 132.784 93.2907C132.542 82.979 126.91 71.6593 117.489 66.7934C112.669 64.3036 106.12 63.6934 100.769 63.8905C95.4552 64.0853 90.2594 65.5124 85.5915 68.0591C77.3186 72.4741 70.5313 80.0762 70.1637 89.8459C70.0007 94.1775 70.3721 99.1723 72.3011 103.11C74.7606 108.15 78.5806 112.398 83.0675 115.707C77.4171 117.628 71.96 120.167 66.5484 122.649C63.7251 123.945 60.9131 125.268 58.086 126.56C57.078 127.019 56.0699 127.492 55.0543 127.917C54.6977 128.119 54.3152 128.27 53.9174 128.368H53.4892C53.5308 128.368 53.6104 128.368 53.5612 128.322C52.6062 127.758 52.0453 124.783 51.727 123.775C51.1434 122.001 50.6242 120.201 50.1467 118.397C48.8013 113.327 46.8535 108.502 45.3224 103.496C43.5527 97.7019 41.0287 88.8985 32.9454 91.4982C31.747 91.8559 30.6722 92.541 29.842 93.4763C29.0118 94.4116 28.4592 95.56 28.2462 96.7924C27.4882 100.961 28.4698 106.214 29.258 110.359C30.8345 118.617 34.412 126.522 36.7919 134.572C38.4328 140.123 40.8165 147.04 47.2476 148.131C52.8677 149.082 58.537 146.062 63.4143 143.636C64.9302 142.879 66.4688 142.121 68.0188 141.431C70.0576 140.518 74.0822 137.793 75.0827 141.113C75.4389 142.31 74.8932 143.97 74.7037 145.221C74.1959 148.79 73.7146 152.364 73.2333 155.938C71.2513 170.695 69.3868 185.471 67.799 200.277C66.9273 208.391 66.0557 216.531 65.5252 224.675C65.2788 228.567 65.2523 233.012 67.132 236.544C68.2044 238.568 70.5427 240.948 73.0097 240.895C75.7838 240.83 77.9363 237.76 79.1035 235.589C81.4759 231.235 83.1547 226.27 84.716 221.586C87.8539 212.15 88.5057 201.611 92.8487 192.61C94.1713 189.874 96.0813 187.1 99.3934 190.454C101.319 192.402 102.213 195.339 103.005 197.878C104.646 203.115 106.484 208.258 108.341 213.416C110.391 219.134 112.441 224.857 114.609 230.53C115.848 233.77 117.027 238.715 120.585 240.247C123.659 241.569 126.842 239.526 128.187 236.733C130.272 232.406 128.968 226.312 128.593 221.738C127.645 210.229 125.751 198.837 123.31 187.559C127.043 187.024 130.378 184.527 132.905 181.821C136.919 177.539 140.928 172.904 144.506 168.258C150.929 159.981 152.468 149.905 145.067 141.753ZM143.896 165.666C140.822 170.054 136.96 174.003 133.497 178.081C132.181 179.722 130.723 181.244 129.139 182.628C126.535 184.773 121.419 187.324 118.611 184.178C115.033 180.161 123.158 172.999 125.519 170.005C128.089 166.727 131.302 163.597 133.356 159.978C135.304 156.544 135.278 153.766 132.42 150.833C127.986 146.285 123.067 141.958 118.308 137.755C117.694 137.213 116.455 137.528 116.534 138.49C117.508 150.397 118.027 162.338 119.073 174.238C119.082 174.369 119.116 174.498 119.172 174.617C118.906 174.943 118.645 175.269 118.376 175.591C117.065 177.167 115.954 178.623 115.829 180.741C115.636 183.951 117.159 187.142 120.525 187.612C120.767 187.646 121.002 187.665 121.241 187.68C123.471 197.659 125.126 207.757 126.198 217.925C126.653 222.473 127.289 227.229 127.103 231.807C127.039 233.44 126.906 235.165 125.967 236.567C124.322 239.003 121.192 238.954 119.524 236.567C118.171 234.63 117.489 232.175 116.652 229.984C113.142 220.802 109.682 211.54 106.548 202.225C105.453 198.962 104.744 195.528 103.194 192.436C102.035 190.121 99.7193 186.475 96.771 186.323C91.2722 186.047 89.078 196.487 88.0547 200.254C85.5232 209.668 83.7686 219.058 80.1154 228.157C78.861 231.28 75.3252 242.266 70.2622 237.207C66.609 233.562 67.4465 226.975 67.8255 222.291C68.4268 214.934 69.1165 207.588 69.8946 200.254C71.4105 186.232 73.1538 172.23 75.0183 158.249C75.5375 154.354 76.0604 150.462 76.6099 146.57C76.9472 144.186 77.7696 141.264 76.8752 138.99C74.9198 134.003 65.2409 140.389 62.3684 141.814C57.366 144.303 48.5399 149.185 43.5716 144.118C41.2069 141.708 39.9487 137.702 38.9785 134.575C37.7507 130.642 36.6592 126.697 35.2571 122.827C32.4755 115.142 29.8985 107.161 30.213 98.8502C30.3381 95.6214 32.1344 93.0823 35.636 93.1922C38.8231 93.2945 40.7104 95.97 41.7829 98.6796C42.7682 101.181 43.2343 103.909 44.1097 106.467C44.9397 108.893 45.8757 111.277 46.6678 113.713C47.9866 117.787 48.8317 121.994 50.2983 126.022C50.8175 127.447 51.492 130.376 53.33 130.642C54.4214 130.797 56.0586 129.744 56.9832 129.334C59.7649 128.114 62.5086 126.803 65.2675 125.545C71.9221 122.467 78.6147 119.25 85.6331 117.082C85.8246 117.022 85.9948 116.908 86.1237 116.754C86.2526 116.6 86.3348 116.413 86.3607 116.213C86.3866 116.014 86.3551 115.812 86.2698 115.63C86.1845 115.448 86.0491 115.295 85.8795 115.187C76.4053 108.953 70.2926 98.5129 72.5133 86.9392C74.7568 75.2405 86.9482 67.5248 98.086 66.2098C104.149 65.4935 112.002 65.9255 117.364 69.1278C122.889 72.4248 126.649 77.844 128.756 83.7862C133.303 96.6711 128.437 110.621 116.015 116.874C115.257 117.253 115.45 118.234 116.015 118.67C123.655 124.525 130.738 130.93 137.73 137.535C141.447 141.048 146.067 144.645 147.583 149.742C149.235 155.343 147.121 161.08 143.896 165.662V165.666ZM120.998 172.374C120.127 161.933 119.611 151.466 118.808 141.022C120.646 142.704 122.457 144.41 124.261 146.123C126.558 148.302 129.229 150.291 131.314 152.667C134.103 155.851 131.693 159.03 129.552 161.653C127.577 164.055 125.652 166.496 123.731 168.944C122.829 170.096 121.918 171.239 120.998 172.374Z" fill="#333333"/>
<path d="M127.649 237.742C126.099 240.015 123.318 241.433 120.619 240.273C119.164 239.648 118.111 238.446 117.285 237.029C111.467 236.741 104.911 236.578 97.98 236.578C90.8819 236.578 84.1856 236.749 78.2737 237.048C77.0345 238.916 75.2419 240.838 73.0477 240.895C71.0847 240.936 69.1861 239.42 67.9544 237.772C59.6702 238.56 54.5049 239.667 54.5049 240.895C54.5011 243.278 73.9686 245.211 97.9762 245.211C121.984 245.211 141.451 243.278 141.451 240.895C141.455 239.652 136.142 238.53 127.649 237.742Z" fill="#E6E6E6"/>
<path d="M89.078 81.63C88.7478 84.2797 88.5933 86.9484 88.6156 89.6186C88.6156 90.9563 90.7038 90.9563 90.6924 89.6186C90.6701 86.9484 90.8245 84.2797 91.1547 81.63C91.3215 80.3074 89.2599 80.3187 89.078 81.63Z" fill="#333333"/>
<path d="M108.743 82.7289C108.371 85.1916 108.178 87.6777 108.163 90.1681C108.163 91.5058 110.243 91.5058 110.243 90.1681C110.246 87.8637 110.415 85.5625 110.747 83.2822C110.933 81.9748 108.932 81.4101 108.743 82.7289Z" fill="#333333"/>
</svg>
